<svg width="64" height="64" viewBox="0 0 64 64" fill="none" xmlns="http://www.w3.org/2000/svg">
<g clip-path="url(#clip0_614_49757)">
<path d="M18.5048 26.5279C18.5048 27.3154 18.59 27.954 18.739 28.4223C18.9092 28.8906 19.1221 29.4014 19.4201 29.9549C19.5265 30.1252 19.5691 30.2954 19.5691 30.4444C19.5691 30.6573 19.4414 30.8702 19.1647 31.083L17.8237 31.977C17.6321 32.1047 17.4405 32.1686 17.2702 32.1686C17.0574 32.1686 16.8445 32.0622 16.6317 31.8706C16.3337 31.5513 16.0782 31.2107 15.8654 30.8702C15.6525 30.5083 15.4397 30.1039 15.2055 29.6143C13.5452 31.5726 11.4592 32.5517 8.94752 32.5517C7.15952 32.5517 5.73338 32.0409 4.69038 31.0192C3.64738 29.9974 3.11523 28.6352 3.11523 26.9323C3.11523 25.123 3.75381 23.6543 5.05224 22.5474C6.35066 21.4406 8.07481 20.8872 10.2672 20.8872C10.991 20.8872 11.736 20.951 12.5235 21.0574C13.3111 21.1639 14.12 21.3342 14.9714 21.5257V19.9719C14.9714 18.3542 14.6308 17.226 13.971 16.5662C13.2898 15.9063 12.1404 15.587 10.5014 15.587C9.75638 15.587 8.99009 15.6722 8.20252 15.8637C7.41495 16.0553 6.64866 16.2894 5.90366 16.5874C5.56309 16.7364 5.30766 16.8216 5.15866 16.8642C5.00966 16.9067 4.90324 16.928 4.81809 16.928C4.52009 16.928 4.37109 16.7152 4.37109 16.2682V15.2252C4.37109 14.8846 4.41366 14.6292 4.52009 14.4802C4.62652 14.3312 4.81809 14.1822 5.11609 14.0332C5.86109 13.65 6.75509 13.3307 7.79809 13.0753C8.84109 12.7986 9.94795 12.6709 11.1187 12.6709C13.6517 12.6709 15.5035 13.2456 16.6955 14.395C17.8662 15.5444 18.4622 17.2899 18.4622 19.6313V26.5279H18.5048ZM9.86281 29.7633C10.5652 29.7633 11.289 29.6356 12.0552 29.3802C12.8215 29.1247 13.5027 28.6564 14.0774 28.0179C14.418 27.6134 14.6734 27.1664 14.8011 26.6556C14.9288 26.1447 15.014 25.5274 15.014 24.8037V23.9097C14.3967 23.7607 13.7368 23.633 13.0557 23.5479C12.3745 23.4627 11.7147 23.4202 11.0548 23.4202C9.62867 23.4202 8.58567 23.6969 7.88324 24.2716C7.18081 24.8463 6.84024 25.6552 6.84024 26.7194C6.84024 27.7199 7.09566 28.4649 7.62781 28.9757C8.13867 29.5079 8.88367 29.7633 9.86281 29.7633ZM26.9552 32.0622C26.5721 32.0622 26.3167 31.9983 26.1464 31.8493C25.9761 31.7216 25.8271 31.4236 25.6994 31.0192L20.6972 14.5653C20.5695 14.1396 20.5057 13.8629 20.5057 13.7139C20.5057 13.3733 20.676 13.1817 21.0165 13.1817H23.1025C23.507 13.1817 23.7837 13.2456 23.9327 13.3946C24.103 13.5223 24.2307 13.8203 24.3584 14.2247L27.9344 28.3159L31.255 14.2247C31.3614 13.799 31.4891 13.5223 31.6594 13.3946C31.8297 13.2669 32.1277 13.1817 32.5108 13.1817H34.2137C34.6181 13.1817 34.8948 13.2456 35.0651 13.3946C35.2354 13.5223 35.3844 13.8203 35.4695 14.2247L38.8327 28.4862L42.5151 14.2247C42.6428 13.799 42.7918 13.5223 42.9408 13.3946C43.1111 13.2669 43.3878 13.1817 43.771 13.1817H45.7505C46.0911 13.1817 46.2827 13.352 46.2827 13.7139C46.2827 13.8203 46.2614 13.9267 46.2401 14.0544C46.2188 14.1822 46.1763 14.3524 46.0911 14.5866L40.9613 31.0404C40.8335 31.4662 40.6845 31.7429 40.5143 31.8706C40.344 31.9983 40.0673 32.0834 39.7054 32.0834H37.8748C37.4704 32.0834 37.1937 32.0196 37.0234 31.8706C36.8531 31.7216 36.7041 31.4449 36.619 31.0192L33.3197 17.2899L30.0417 30.9979C29.9353 31.4236 29.8075 31.7003 29.6372 31.8493C29.467 31.9983 29.169 32.0622 28.7858 32.0622H26.9552ZM54.3074 32.6369C53.2005 32.6369 52.0937 32.5092 51.0294 32.2537C49.9651 31.9983 49.135 31.7216 48.5815 31.4023C48.241 31.2107 48.0068 30.9979 47.9217 30.8063C47.8365 30.6147 47.794 30.4019 47.794 30.2103V29.1247C47.794 28.6777 47.9643 28.4649 48.2835 28.4649C48.4113 28.4649 48.539 28.4862 48.6667 28.5287C48.7944 28.5713 48.986 28.6564 49.1988 28.7416C49.9225 29.0609 50.7101 29.3163 51.5403 29.4866C52.3917 29.6569 53.2218 29.742 54.0733 29.742C55.4143 29.742 56.4573 29.5079 57.181 29.0396C57.9047 28.5713 58.2878 27.8902 58.2878 27.0174C58.2878 26.4214 58.0963 25.9319 57.7131 25.5274C57.33 25.123 56.6063 24.7612 55.5633 24.4206L52.4768 23.4627C50.923 22.9732 49.7735 22.2494 49.0711 21.2916C48.3687 20.355 48.0068 19.312 48.0068 18.2052C48.0068 17.3112 48.1984 16.5236 48.5815 15.8424C48.9647 15.1613 49.4755 14.5653 50.1141 14.097C50.7527 13.6074 51.4764 13.2456 52.3278 12.9902C53.1793 12.7347 54.0733 12.6283 55.0098 12.6283C55.4781 12.6283 55.9677 12.6496 56.436 12.7134C56.9256 12.7773 57.3726 12.8624 57.8196 12.9476C58.2453 13.054 58.6497 13.1604 59.0328 13.2882C59.416 13.4159 59.714 13.5436 59.9268 13.6713C60.2248 13.8416 60.4377 14.0119 60.5654 14.2034C60.6931 14.3737 60.757 14.6079 60.757 14.9059V15.9063C60.757 16.3533 60.5867 16.5874 60.2674 16.5874C60.0971 16.5874 59.8204 16.5023 59.4585 16.332C58.2453 15.7786 56.883 15.5019 55.3717 15.5019C54.1584 15.5019 53.2005 15.6934 52.5407 16.0979C51.8808 16.5023 51.5403 17.1196 51.5403 17.9923C51.5403 18.5883 51.7531 19.0992 52.1788 19.5036C52.6045 19.908 53.3921 20.3124 54.5203 20.6743L57.5428 21.6322C59.0754 22.1217 60.1823 22.8029 60.8421 23.6756C61.502 24.5483 61.8213 25.5487 61.8213 26.6556C61.8213 27.5709 61.6297 28.401 61.2678 29.1247C60.8847 29.8484 60.3738 30.487 59.714 30.9979C59.0541 31.53 58.2665 31.9132 57.3513 32.1899C56.3934 32.4879 55.393 32.6369 54.3074 32.6369Z" fill="#252F3E"/>
<path fill-rule="evenodd" clip-rule="evenodd" d="M58.3304 42.9817C51.3274 48.1542 41.1528 50.9 32.4044 50.9C20.1438 50.9 9.09653 46.3662 0.752524 38.831C0.0926662 38.235 0.688666 37.4261 1.47624 37.8944C10.5014 43.1307 21.6338 46.3023 33.1494 46.3023C40.9187 46.3023 49.4543 44.6846 57.3087 41.364C58.4794 40.8319 59.4798 42.1303 58.3304 42.9817Z" fill="#FF9900"/>
<path fill-rule="evenodd" clip-rule="evenodd" d="M61.2466 39.6611C60.3526 38.5117 55.3291 39.1077 53.0516 39.3844C52.3704 39.4696 52.264 38.8736 52.8813 38.4266C56.883 35.6169 63.4603 36.4257 64.2266 37.3623C64.9929 38.3201 64.0137 44.8974 60.2674 48.0477C59.6927 48.5373 59.1393 48.2819 59.3947 47.6433C60.2461 45.536 62.1406 40.7893 61.2466 39.6611Z" fill="#FF9900"/>
</g>
<defs>
<clipPath id="clip0_614_49757">
<rect width="64.0001" height="64" fill="white"/>
</clipPath>
</defs>
</svg>
